<svg viewBox="0 0 21 20" fill="transparent" xmlns="http://www.w3.org/2000/svg">
<path d="M16.6666 8.73282V14.8835L10.7572 18.4292C10.5988 18.5242 10.401 18.5242 10.2427 18.4292L4.33325 14.8835V8.73282C4.33325 8.55719 4.4254 8.39443 4.576 8.30407L10.4999 4.74972L16.4238 8.30407C16.5744 8.39443 16.6666 8.55719 16.6666 8.73282Z" stroke="white"/>
<path d="M4.66658 8.33337L10.4999 11.6667L16.3333 8.33337" stroke="white"/>
<path d="M11 1.66667C11 1.39052 10.7761 1.16667 10.5 1.16667C10.2239 1.16667 10 1.39052 10 1.66667H11ZM11 5V1.66667H10V5H11Z" fill="white"/>
<path d="M1.08346 16.2337C0.844317 16.3717 0.76238 16.6775 0.900451 16.9167C1.03852 17.1558 1.34432 17.2377 1.58346 17.0997L1.08346 16.2337ZM3.97021 14.567L1.08346 16.2337L1.58346 17.0997L4.47021 15.433L3.97021 14.567Z" fill="white"/>
<path d="M19.47 16.2337C19.7091 16.3717 19.7911 16.6775 19.653 16.9167C19.5149 17.1558 19.2091 17.2377 18.97 17.0997L19.47 16.2337ZM16.5833 14.567L19.47 16.2337L18.97 17.0997L16.0833 15.433L16.5833 14.567Z" fill="white"/>
<path d="M10.5 11.6666L10.5 18.3333" stroke="white"/>
</svg>
