<?xml version="1.0" encoding="UTF-8"?>
<svg width="36px" height="45px" viewBox="0 0 59 59" version="1.1" xmlns="http://www.w3.org/2000/svg" xmlns:xlink="http://www.w3.org/1999/xlink">
    <title>#</title>
    <desc>Created with Sketch.</desc>
    <g id="PLP" stroke="none" stroke-width="1" fill="none" fill-rule="evenodd">
        <g id="PLP-–-Sort-" transform="translate(-284.000000, -275.000000)" fill="currentColor" fill-rule="nonzero">
            <g id="Trending" transform="translate(269.631250, 275.568750)">
                <g id="#" transform="translate(14.735000, 0.000000)">
                    <path d="M32.5767769,25.8970213 L25.3832231,25.8970213 C24.9855918,25.8970213 24.6638298,26.2417738 24.6638298,26.6677355 L24.6638298,31.2922645 C24.6638298,31.7183075 24.9855918,32.0629787 25.3832231,32.0629787 L32.5767769,32.0629787 C32.9744082,32.0629787 33.2961702,31.7182262 33.2961702,31.2922645 L33.2961702,26.6677355 C33.2961702,26.2417738 32.9744082,25.8970213 32.5767769,25.8970213 Z M32.0629787,30.8297872 L25.8970213,30.8297872 L25.8970213,27.1302128 L32.0629787,27.1302128 L32.0629787,30.8297872 Z" id="Shape" stroke="currentColor" stroke-width="0.9936"></path>
                    <path d="M28.98,0 C13.0005865,0 0,13.0005865 0,28.98 C0,44.9594135 13.0005865,57.96 28.98,57.96 C44.9594135,57.96 57.96,44.9594135 57.96,28.98 C57.96,13.0005865 44.9594135,0 28.98,0 Z M28.98,55.8133291 C14.1838987,55.8133291 2.14667086,43.7761012 2.14667086,28.98 C2.14667086,14.1838987 14.1838987,2.14667086 28.98,2.14667086 C43.7761012,2.14667086 55.8133291,14.1838987 55.8133291,28.98 C55.8133291,43.7761012 43.7761012,55.8133291 28.98,55.8133291 Z" id="Shape"></path>
                    <path d="M39.5586271,30.9350084 L38.1224874,30.9350084 L38.1224874,28.06 L39.5586271,28.06 C41.1449379,28.06 42.435,26.770608 42.435,25.1849747 C42.435,23.5993415 41.1448621,22.3099579 39.5586271,22.3099579 L38.1224874,22.3099579 L38.1224874,19.4363814 C38.1224874,17.8500658 36.8331076,16.56 35.2474789,16.56 C33.6618503,16.56 32.3724705,17.8501416 32.3724705,19.4363814 L32.3724705,22.3099579 L26.6224537,22.3099579 L26.6224537,19.4363814 C26.6224537,17.8500658 25.3330739,16.56 23.7474453,16.56 C22.1618166,16.56 20.8724368,17.8501416 20.8724368,19.4363814 L20.8724368,22.3099579 L19.4363729,22.3099579 C17.8500621,22.3099579 16.56,23.5993415 16.56,25.1849747 C16.56,26.770608 17.8501379,28.06 19.4363729,28.06 L20.8724368,28.06 L20.8724368,30.9350084 L19.4363729,30.9350084 C17.8500621,30.9350084 16.56,32.224392 16.56,33.8100253 C16.56,35.3956585 17.8501379,36.6850421 19.4363729,36.6850421 L20.8724368,36.6850421 L20.8724368,39.5586186 C20.8724368,41.1449342 22.1618166,42.435 23.7474453,42.435 C25.3330739,42.435 26.6224537,41.1448584 26.6224537,39.5586186 L26.6224537,36.6850421 L32.3724705,36.6850421 L32.3724705,39.5586186 C32.3724705,41.1449342 33.6618503,42.435 35.2474789,42.435 C36.8331076,42.435 38.1224874,41.1448584 38.1224874,39.5586186 L38.1224874,36.6850421 L39.5586271,36.6850421 C41.1449379,36.6850421 42.435,35.3956585 42.435,33.8100253 C42.435,32.224392 41.1449379,30.9350084 39.5586271,30.9350084 Z M39.5586271,35.2475337 L37.4037732,35.2475337 C37.0064753,35.2475337 36.6849832,35.5690268 36.6849832,35.96625 L36.6849832,39.5586186 C36.6849832,40.3517764 36.0399521,40.9974916 35.2474789,40.9974916 C34.4550058,40.9974916 33.8099747,40.3517764 33.8099747,39.5586186 L33.8099747,35.96625 C33.8099747,35.568951 33.4884826,35.2475337 33.0911847,35.2475337 L25.9036637,35.2475337 C25.5063658,35.2475337 25.1848737,35.5690268 25.1848737,35.96625 L25.1848737,39.5586186 C25.1848737,40.3517764 24.5398426,40.9974916 23.7473694,40.9974916 C22.9548963,40.9974916 22.3098652,40.3517006 22.3098652,39.5586186 L22.3098652,35.96625 C22.3098652,35.568951 21.9883731,35.2475337 21.591151,35.2475337 L19.4362971,35.2475337 C18.6431417,35.2475337 17.9974284,34.6025008 17.9974284,33.8100253 C17.9974284,33.0175498 18.6432175,32.3725168 19.4362971,32.3725168 L21.591151,32.3725168 C21.9884489,32.3725168 22.3098652,32.0510238 22.3098652,31.6538005 L22.3098652,27.3412753 C22.3098652,26.9439762 21.9883731,26.622559 21.591151,26.622559 L19.4362971,26.622559 C18.6431417,26.622559 17.9974284,25.977526 17.9974284,25.1850505 C17.9974284,24.392575 18.6432175,23.7475421 19.4362971,23.7475421 L21.591151,23.7475421 C21.9884489,23.7475421 22.3098652,23.426049 22.3098652,23.0288258 L22.3098652,19.4364572 C22.3098652,18.6432994 22.9548963,17.9975842 23.7473694,17.9975842 C24.5398426,17.9975842 25.1848737,18.6433752 25.1848737,19.4364572 L25.1848737,23.0288258 C25.1848737,23.4261248 25.5063658,23.7475421 25.9036637,23.7475421 L33.0911847,23.7475421 C33.4884826,23.7475421 33.8099747,23.426049 33.8099747,23.0288258 L33.8099747,19.4364572 C33.8099747,18.6432994 34.4550058,17.9975842 35.2474789,17.9975842 C36.0399521,17.9975842 36.6849832,18.6433752 36.6849832,19.4364572 L36.6849832,23.0288258 C36.6849832,23.4261248 37.0064753,23.7475421 37.4037732,23.7475421 L39.5586271,23.7475421 C40.3517825,23.7475421 40.9974958,24.392575 40.9974958,25.1850505 C40.9974958,25.977526 40.3517067,26.622559 39.5586271,26.622559 L37.4037732,26.622559 C37.0064753,26.622559 36.6849832,26.944052 36.6849832,27.3412753 L36.6849832,31.6538005 C36.6849832,32.0510996 37.0064753,32.3725168 37.4037732,32.3725168 L39.5586271,32.3725168 C40.3517825,32.3725168 40.9974958,33.0175498 40.9974958,33.8100253 C40.9974958,34.6025008 40.3517825,35.2475337 39.5586271,35.2475337 Z" id="Shape" stroke="currentColor" stroke-width="0.828" ></path>
                </g>
            </g>
        </g>
    </g>
</svg>