<?xml version="1.0" encoding="UTF-8"?>
<svg width="36px" height="45px" viewBox="0 0 50 59" version="1.1" xmlns="http://www.w3.org/2000/svg" xmlns:xlink="http://www.w3.org/1999/xlink">
    <title>Arrow Price</title>
    <desc>Created with Sketch.</desc>
    <g id="PLP" stroke="none" stroke-width="1" fill="none" fill-rule="evenodd">
        <g id="PLP-–-Sort-" transform="translate(-127.000000, -441.000000)" fill="currentColor" fill-rule="nonzero">
            <g id="Price-Low" transform="translate(120.437500, 441.168750)">
                <g id="Arrow-Price" transform="translate(31.920000, 29.000000) rotate(-360.000000) translate(-31.920000, -29.000000) translate(7.420000, 0.000000)">
                    <path d="M48.4509468,31.463337 C48.182288,30.8447951 47.3962456,29.807062 45.1522337,29.807062 L37.9290196,29.807062 C36.0765172,29.807062 34.5693851,28.2835744 34.5693851,26.4109683 L34.5693851,1.13203125 C34.5693851,0.506923594 34.0679037,0 33.449507,0 L15.195493,0 C14.5770963,0 14.0756149,0.506923594 14.0756149,1.13203125 L14.0756149,26.4109683 C14.0756149,28.2835744 12.5684828,29.807062 10.7159804,29.807062 L3.49276629,29.807062 C1.24875444,29.807062 0.462711963,30.8447951 0.194053193,31.463337 C-0.0747175644,32.0818788 -0.298917171,33.3689984 1.21907767,35.0395369 L20.4672075,56.2184831 C21.4879764,57.3414581 22.8571394,57.96 24.3225,57.96 C25.7878606,57.96 27.1570236,57.3414581 28.1777925,56.2183699 L47.4259223,35.0394237 C48.9439172,33.3689984 48.7197176,32.0817656 48.4509468,31.463337 Z M16.3153712,2.2640625 L32.3296288,2.2640625 L32.3296288,4.528125 L16.3153712,4.528125 L16.3153712,2.2640625 Z M45.7764538,33.5076722 L26.528324,54.6866184 C25.9368044,55.3374232 25.1534496,55.6959375 24.3225,55.6959375 C23.4915504,55.6959375 22.7081956,55.3374232 22.116676,54.6866184 L2.86854621,33.5076722 C2.24443811,32.8210952 2.22304844,32.4236391 2.24477407,32.3737165 C2.26627573,32.3240203 2.57032265,32.0710113 3.49287828,32.0710113 L10.7160924,32.0710113 C13.8035965,32.0710113 16.3154832,29.5318652 16.3154832,26.4108551 L16.3154832,6.7921875 L32.3297408,6.7921875 L32.3297408,26.4109683 C32.3297408,29.5319784 34.8416275,32.0711245 37.9291316,32.0711245 L45.1522337,32.0711245 C46.0746773,32.0711245 46.3787243,32.3240203 46.4003379,32.3738297 C46.4219516,32.4236391 46.4005619,32.8210952 45.7764538,33.5076722 Z" id="Shape"></path>
                    <path d="M24.3225,33.0259091 C22.4391933,33.0259091 20.907,31.5063785 20.907,29.6386364 C20.907,28.1667535 21.8588999,26.911656 23.184,26.4455673 L23.184,29.6386364 C23.184,30.2621204 23.6938203,30.7677273 24.3225,30.7677273 C24.9511797,30.7677273 25.461,30.2621204 25.461,29.6386364 L25.461,26.4455673 C26.7861002,26.911656 27.738,28.1666405 27.738,29.6386364 C27.738,30.2621204 28.2478203,30.7677273 28.8765,30.7677273 C29.5051797,30.7677273 30.015,30.2621204 30.015,29.6386364 C30.015,26.9123335 28.0562108,24.631344 25.461,24.1067684 L25.461,22.8640909 C25.461,22.2406069 24.9511797,21.735 24.3225,21.735 C23.6938203,21.735 23.184,22.2406069 23.184,22.8640909 L23.184,24.1067684 C20.5887892,24.631344 18.63,26.9122205 18.63,29.6386364 C18.63,32.75154 21.1836555,35.2840909 24.3225,35.2840909 C26.2058067,35.2840909 27.738,36.8036215 27.738,38.6713636 C27.738,40.1432465 26.7861002,41.398344 25.461,41.8644327 L25.461,38.6713636 C25.461,38.0478796 24.9511797,37.5422727 24.3225,37.5422727 C23.6938203,37.5422727 23.184,38.0478796 23.184,38.6713636 L23.184,41.8644327 C21.8588999,41.398344 20.907,40.1433595 20.907,38.6713636 C20.907,38.0478796 20.3971797,37.5422727 19.7685,37.5422727 C19.1398203,37.5422727 18.63,38.0478796 18.63,38.6713636 C18.63,41.3976665 20.5887892,43.678656 23.184,44.2032316 L23.184,45.4459091 C23.184,46.0693931 23.6938203,46.575 24.3225,46.575 C24.9511797,46.575 25.461,46.0693931 25.461,45.4459091 L25.461,44.2032316 C28.0562108,43.678656 30.015,41.3977795 30.015,38.6713636 C30.015,35.55846 27.4613445,33.0259091 24.3225,33.0259091 Z" id="Shape"></path>
                </g>
            </g>
        </g>
    </g>
</svg>