<?xml version="1.0" standalone="no"?>
<!DOCTYPE svg PUBLIC "-//W3C//DTD SVG 20010904//EN"
 "http://www.w3.org/TR/2001/REC-SVG-20010904/DTD/svg10.dtd">
<svg version="1.0" xmlns="http://www.w3.org/2000/svg"
 width="600.000000pt" height="600.000000pt" viewBox="0 0 600.000000 600.000000"
 preserveAspectRatio="xMidYMid meet">
<metadata>
Created by potrace 1.14, written by Peter Selinger 2001-2017
</metadata>
<g transform="translate(0.000000,600.000000) scale(0.100000,-0.100000)"
fill="#000000" stroke="none">
<path d="M1355 5308 c-259 -196 -470 -423 -657 -708 -561 -852 -628 -1952
-174 -2875 136 -276 297 -504 516 -729 145 -148 412 -373 423 -355 1 2 0 1070
-3 2373 l-5 2369 -100 -75z"/>
<path d="M2682 4318 l3 -573 380 -3 c244 -2 404 1 447 8 199 34 348 188 408
424 25 101 27 277 4 357 -50 170 -193 311 -355 348 -26 6 -218 11 -467 11
l-422 0 2 -572z"/>
<path d="M5120 4873 c0 -5 9 -37 21 -73 74 -236 85 -573 29 -850 -128 -627
-588 -1096 -1210 -1234 -177 -39 -306 -46 -813 -46 l-467 0 2 -1247 3 -1248
50 -8 c95 -16 480 -12 615 7 349 48 609 129 918 285 268 136 500 309 722 538
425 436 687 967 786 1593 25 161 31 578 10 750 -66 545 -273 1052 -594 1458
-65 81 -72 89 -72 75z"/>
</g>
</svg>
